<svg width="522" height="182" viewBox="0 0 522 182" fill="none" xmlns="http://www.w3.org/2000/svg">
<path d="M521.667 179C521.667 180.473 520.473 181.667 519 181.667C517.527 181.667 516.333 180.473 516.333 179C516.333 177.527 517.527 176.333 519 176.333C520.473 176.333 521.667 177.527 521.667 179ZM5 3.5L0 5.88675V0.113249L5 2.5V3.5ZM519 179.5H390.218V178.5H519V179.5ZM310.718 99V83H311.718V99H310.718ZM231.218 3.5H5.5V2.5H231.218V3.5ZM310.718 83C310.718 39.0934 275.125 3.5 231.218 3.5V2.5C275.677 2.5 311.718 38.5411 311.718 83H310.718ZM390.218 179.5C345.759 179.5 310.718 143.459 310.718 99H311.718C311.718 142.907 347.312 178.5 391.218 178.5V179.5Z" fill="#252134"/>
</svg>

